<?xml version="1.0" encoding="utf-8"?>
<svg viewBox="0 0 500 500" xmlns="http://www.w3.org/2000/svg" xmlns:bx="https://boxy-svg.com">
  <path d="M 143.629 150.604 C 144.461 193.676 365.003 187.756 364.291 150.882 L 336.93 348.658 L 166.296 348.658 L 143.629 150.604" style="fill: rgb(187, 0, 187);"/>
  <g/>
  <path style="fill: rgb(216, 216, 216); stroke: rgb(0, 0, 0);" d="M 303.051 50.386"/>
  <circle style="fill: rgb(187, 0, 187);" transform="matrix(-0.37669, 0.92634, -0.92634, -0.37669, 373.79398, 47.959254)" cx="185.863" cy="117.846" r="34.927"/>
  <circle style="fill: rgb(187, 0, 187);" transform="matrix(-0.376691, 0.92634, -0.926339, -0.37669, 486.65946, 48.664944)" cx="185.863" cy="117.846" r="34.927"/>
  <path d="M 211.488 219.977 m -119.882 0 a 119.882 115.697 0 1 0 239.764 0 a 119.882 115.697 0 1 0 -239.764 0 Z M 211.488 219.977 m -71.93 0 a 71.93 69.421 0 0 1 143.86 0 a 71.93 69.421 0 0 1 -143.86 0 Z" style="fill: rgb(187, 0, 187);" transform="matrix(-0.691369, 0.722502, -0.722501, -0.69137, 558.908673, 121.704785)" bx:shape="ring 211.488 219.977 71.93 69.421 119.882 115.697 1@2f2b35e5"/>
</svg>